<svg width="1920" height="688" viewBox="0 0 1920 688" fill="none" xmlns="http://www.w3.org/2000/svg">
<path d="M81 199.979V583.445" stroke="#FF4747" stroke-width="8" stroke-linecap="round"/>
<path d="M71 200H91" stroke="#FF4747" stroke-width="8" stroke-linecap="round"/>
<path d="M71 583H91" stroke="#FF4747" stroke-width="8" stroke-linecap="round"/>
<path d="M930 359.894L986.728 359.873" stroke="black" stroke-opacity="0.4" stroke-width="3" stroke-dasharray="4 3"/>
<path d="M972.729 349L1001.09 359.894L972.729 370.788V349Z" fill="black" fill-opacity="0.4"/>
<path d="M999.697 359.894L973.229 370.06V349.728L999.697 359.894Z" stroke="black" stroke-opacity="0.4"/>
<path d="M1030 104.112V583.445" stroke="#FF4747" stroke-width="8" stroke-linecap="round"/>
<path d="M1020 104H1040" stroke="#FF4747" stroke-width="8" stroke-linecap="round"/>
<path d="M1020 583H1040" stroke="#FF4747" stroke-width="8" stroke-linecap="round"/>
<path d="M704 174H296V582H704V174Z" fill="#D8E6FF"/>
<rect x="821.637" y="103.749" width="70" height="480" rx="20" fill="#EEEEEE"/>
<path d="M108 124C108 112.954 116.954 104 128 104H872C883.046 104 892 112.954 892 124V174H108V124Z" fill="#FFB7B7"/>
<rect x="110.636" y="106.749" width="778" height="474" rx="17" stroke="black" stroke-opacity="0.29" stroke-width="6"/>
<path d="M1708 104H1208V584H1708V104Z" fill="#D8E6FF"/>
<rect x="1779.64" y="103.749" width="70" height="480" rx="20" fill="#EEEEEE"/>
<path d="M1066 124C1066 112.954 1074.95 104 1086 104H1138V584H1086C1074.95 584 1066 575.046 1066 564V124Z" fill="#FFB7B7"/>
<rect x="1068.64" y="106.749" width="778" height="474" rx="17" stroke="black" stroke-opacity="0.29" stroke-width="6"/>
<path d="M459.31 128.304H472.986V130.046H459.31V128.304ZM465.03 129.162L467.188 129.448C466.928 130.193 466.651 130.947 466.356 131.71C466.079 132.473 465.819 133.123 465.576 133.66L463.912 133.322C464.12 132.733 464.328 132.048 464.536 131.268C464.744 130.471 464.909 129.769 465.03 129.162ZM465.212 136.104H467.136V141.356C467.136 142.171 467.041 143.02 466.85 143.904C466.659 144.788 466.304 145.663 465.784 146.53C465.264 147.379 464.501 148.194 463.496 148.974C462.491 149.754 461.173 150.456 459.544 151.08C459.457 150.941 459.345 150.777 459.206 150.586C459.085 150.395 458.946 150.205 458.79 150.014C458.634 149.823 458.487 149.667 458.348 149.546C459.96 149.026 461.225 148.437 462.144 147.778C463.063 147.119 463.739 146.426 464.172 145.698C464.623 144.953 464.909 144.207 465.03 143.462C465.151 142.717 465.212 142.006 465.212 141.33V136.104ZM466.382 146.66L467.63 145.386C468.254 145.785 468.904 146.244 469.58 146.764C470.273 147.267 470.923 147.778 471.53 148.298C472.154 148.801 472.657 149.251 473.038 149.65L471.712 151.132C471.348 150.699 470.863 150.222 470.256 149.702C469.649 149.182 469.008 148.653 468.332 148.116C467.656 147.579 467.006 147.093 466.382 146.66ZM460.376 132.672H471.946V144.918H470.048V134.518H462.222V144.97H460.376V132.672ZM449.17 129.006H458.816V130.852H449.17V129.006ZM453.382 129.994H455.332V147.674C455.332 148.263 455.245 148.714 455.072 149.026C454.916 149.355 454.639 149.598 454.24 149.754C453.876 149.927 453.356 150.04 452.68 150.092C452.021 150.144 451.172 150.161 450.132 150.144C450.115 149.971 450.063 149.763 449.976 149.52C449.889 149.295 449.794 149.061 449.69 148.818C449.603 148.575 449.508 148.367 449.404 148.194C450.201 148.211 450.912 148.229 451.536 148.246C452.177 148.246 452.602 148.237 452.81 148.22C453.035 148.203 453.183 148.159 453.252 148.09C453.339 148.021 453.382 147.882 453.382 147.674V129.994ZM489.6 128.694H497.4V130.54H491.498V151.08H489.6V128.694ZM475.742 130.046H488.17V131.788H475.742V130.046ZM475.092 137.248H488.534V139.016H475.092V137.248ZM480.968 127.264H482.866V131.086H480.968V127.264ZM477.38 132.672L479.018 132.334C479.295 132.975 479.547 133.695 479.772 134.492C479.997 135.272 480.145 135.939 480.214 136.494L478.472 136.936C478.42 136.347 478.29 135.662 478.082 134.882C477.874 134.085 477.64 133.348 477.38 132.672ZM484.816 132.152L486.688 132.594C486.411 133.357 486.116 134.145 485.804 134.96C485.509 135.757 485.223 136.442 484.946 137.014L483.36 136.572C483.533 136.173 483.707 135.714 483.88 135.194C484.071 134.674 484.244 134.145 484.4 133.608C484.573 133.071 484.712 132.585 484.816 132.152ZM477.51 147.83H486.064V149.572H477.51V147.83ZM476.834 141.304H487.078V150.976H485.18V143.02H478.654V151.106H476.834V141.304ZM496.906 128.694H497.27L497.608 128.616L499.012 129.526C498.492 130.757 497.911 132.074 497.27 133.478C496.629 134.882 496.005 136.182 495.398 137.378C496.282 138.193 496.958 138.973 497.426 139.718C497.894 140.446 498.223 141.139 498.414 141.798C498.605 142.457 498.7 143.098 498.7 143.722C498.7 144.537 498.596 145.239 498.388 145.828C498.18 146.4 497.851 146.842 497.4 147.154C496.949 147.449 496.386 147.639 495.71 147.726C495.363 147.761 494.991 147.778 494.592 147.778C494.211 147.778 493.821 147.769 493.422 147.752C493.405 147.475 493.353 147.154 493.266 146.79C493.179 146.426 493.049 146.105 492.876 145.828C493.275 145.863 493.647 145.889 493.994 145.906C494.341 145.906 494.644 145.897 494.904 145.88C495.129 145.863 495.337 145.837 495.528 145.802C495.719 145.75 495.892 145.681 496.048 145.594C496.325 145.421 496.516 145.152 496.62 144.788C496.741 144.424 496.802 143.999 496.802 143.514C496.785 142.699 496.542 141.807 496.074 140.836C495.606 139.848 494.705 138.782 493.37 137.638C493.717 136.979 494.055 136.277 494.384 135.532C494.713 134.769 495.034 134.015 495.346 133.27C495.658 132.507 495.944 131.788 496.204 131.112C496.464 130.436 496.698 129.838 496.906 129.318V128.694ZM505.928 128.746H513.286V130.722H505.928V128.746ZM512.298 128.746H514.274C514.274 129.509 514.309 130.41 514.378 131.45C514.447 132.49 514.595 133.608 514.82 134.804C515.045 135.983 515.392 137.213 515.86 138.496C516.328 139.779 516.961 141.061 517.758 142.344C518.555 143.609 519.552 144.84 520.748 146.036C521.961 147.232 523.426 148.333 525.142 149.338C525.003 149.459 524.821 149.615 524.596 149.806C524.388 150.014 524.189 150.222 523.998 150.43C523.825 150.655 523.677 150.846 523.556 151.002C521.823 149.945 520.332 148.783 519.084 147.518C517.853 146.235 516.822 144.901 515.99 143.514C515.175 142.127 514.517 140.741 514.014 139.354C513.529 137.95 513.156 136.598 512.896 135.298C512.653 133.981 512.489 132.759 512.402 131.632C512.333 130.505 512.298 129.543 512.298 128.746ZM511.544 133.842L513.754 134.232C513.13 136.867 512.315 139.241 511.31 141.356C510.322 143.471 509.117 145.334 507.696 146.946C506.292 148.541 504.628 149.901 502.704 151.028C502.6 150.889 502.435 150.725 502.21 150.534C502.002 150.343 501.777 150.144 501.534 149.936C501.309 149.745 501.109 149.589 500.936 149.468C503.831 147.943 506.127 145.88 507.826 143.28C509.525 140.663 510.764 137.517 511.544 133.842ZM529.302 129.89H548.802V150.326H546.696V131.84H531.33V150.43H529.302V129.89ZM530.212 146.218H548.126V148.22H530.212V146.218Z" fill="#FF0000"/>
<path d="M1090.74 289.866H1113.18V291.738H1090.74V289.866ZM1097.74 296.73H1112.5V298.602H1097.74V296.73ZM1095.03 306.428H1113.67V308.326H1095.03V306.428ZM1103.56 297.588H1105.54V307.52H1103.56V297.588ZM1098.62 285.16L1100.65 285.446C1100.3 287.457 1099.87 289.485 1099.35 291.53C1098.85 293.575 1098.22 295.569 1097.48 297.51C1096.75 299.434 1095.86 301.245 1094.8 302.944C1093.74 304.643 1092.49 306.168 1091.05 307.52C1090.95 307.364 1090.82 307.191 1090.66 307C1090.51 306.809 1090.35 306.619 1090.2 306.428C1090.04 306.237 1089.88 306.09 1089.73 305.986C1091.08 304.755 1092.25 303.343 1093.24 301.748C1094.24 300.136 1095.09 298.411 1095.79 296.574C1096.48 294.719 1097.05 292.821 1097.5 290.88C1097.95 288.939 1098.33 287.032 1098.62 285.16ZM1094.25 316.186L1095.97 316.602C1095.57 318.075 1095.1 319.54 1094.56 320.996C1094.03 322.452 1093.43 323.839 1092.77 325.156C1092.11 326.456 1091.43 327.617 1090.72 328.64C1090.66 328.501 1090.58 328.319 1090.46 328.094C1090.33 327.869 1090.2 327.635 1090.07 327.392C1089.93 327.149 1089.81 326.959 1089.7 326.82C1090.36 325.919 1090.97 324.896 1091.52 323.752C1092.08 322.608 1092.59 321.395 1093.06 320.112C1093.52 318.812 1093.92 317.503 1094.25 316.186ZM1092.64 322.712L1094.23 321.126L1094.28 321.152V340.002H1092.64V322.712ZM1101.45 335.426L1102.65 334.62C1103.07 335.053 1103.49 335.53 1103.92 336.05C1104.37 336.57 1104.78 337.081 1105.15 337.584C1105.53 338.069 1105.83 338.503 1106.06 338.884L1104.81 339.82C1104.6 339.421 1104.31 338.962 1103.92 338.442C1103.56 337.939 1103.16 337.428 1102.73 336.908C1102.31 336.371 1101.89 335.877 1101.45 335.426ZM1096.62 317.798H1105.46V333.996H1103.82V319.306H1098.18V334.048H1096.62V317.798ZM1111.33 316.394H1113V337.792C1113 338.329 1112.93 338.737 1112.79 339.014C1112.65 339.291 1112.43 339.508 1112.11 339.664C1111.8 339.803 1111.37 339.889 1110.81 339.924C1110.28 339.976 1109.57 340.002 1108.71 340.002C1108.67 339.777 1108.6 339.499 1108.47 339.17C1108.37 338.841 1108.27 338.546 1108.16 338.286C1108.79 338.303 1109.35 338.312 1109.85 338.312C1110.35 338.312 1110.69 338.312 1110.87 338.312C1111.04 338.312 1111.16 338.277 1111.23 338.208C1111.3 338.139 1111.33 338.009 1111.33 337.818V316.394ZM1107.51 318.656H1109.1V334.23H1107.51V318.656ZM1100.23 321.048H1101.74V329.914C1101.74 330.798 1101.68 331.699 1101.56 332.618C1101.45 333.537 1101.23 334.447 1100.88 335.348C1100.55 336.249 1100.06 337.107 1099.4 337.922C1098.74 338.719 1097.88 339.439 1096.83 340.08C1096.77 339.976 1096.68 339.846 1096.54 339.69C1096.42 339.534 1096.29 339.387 1096.15 339.248C1096.01 339.109 1095.9 339.005 1095.81 338.936C1096.8 338.329 1097.59 337.671 1098.18 336.96C1098.77 336.232 1099.21 335.478 1099.5 334.698C1099.8 333.918 1099.99 333.121 1100.08 332.306C1100.18 331.491 1100.23 330.694 1100.23 329.914V321.048ZM1094.93 348.746H1102.29V350.722H1094.93V348.746ZM1101.3 348.746H1103.27C1103.27 349.509 1103.31 350.41 1103.38 351.45C1103.45 352.49 1103.59 353.608 1103.82 354.804C1104.05 355.983 1104.39 357.213 1104.86 358.496C1105.33 359.779 1105.96 361.061 1106.76 362.344C1107.56 363.609 1108.55 364.84 1109.75 366.036C1110.96 367.232 1112.43 368.333 1114.14 369.338C1114 369.459 1113.82 369.615 1113.6 369.806C1113.39 370.014 1113.19 370.222 1113 370.43C1112.82 370.655 1112.68 370.846 1112.56 371.002C1110.82 369.945 1109.33 368.783 1108.08 367.518C1106.85 366.235 1105.82 364.901 1104.99 363.514C1104.18 362.127 1103.52 360.741 1103.01 359.354C1102.53 357.95 1102.16 356.598 1101.9 355.298C1101.65 353.981 1101.49 352.759 1101.4 351.632C1101.33 350.505 1101.3 349.543 1101.3 348.746ZM1100.54 353.842L1102.75 354.232C1102.13 356.867 1101.32 359.241 1100.31 361.356C1099.32 363.471 1098.12 365.334 1096.7 366.946C1095.29 368.541 1093.63 369.901 1091.7 371.028C1091.6 370.889 1091.44 370.725 1091.21 370.534C1091 370.343 1090.78 370.144 1090.53 369.936C1090.31 369.745 1090.11 369.589 1089.94 369.468C1092.83 367.943 1095.13 365.88 1096.83 363.28C1098.52 360.663 1099.76 357.517 1100.54 353.842ZM1092.3 380.89H1111.8V401.326H1109.7V382.84H1094.33V401.43H1092.3V380.89ZM1093.21 397.218H1111.13V399.22H1093.21V397.218Z" fill="#FF0000"/>
<path d="M1365.8 339.282H1383.93V341.266H1365.8V339.282ZM1365.18 356.363H1383.87V358.347H1365.18V356.363ZM1370.35 336.709H1372.55V343.591H1370.35V336.709ZM1377.33 336.709H1379.59V343.591H1377.33V336.709ZM1369.27 349.822V352.054H1380.06V349.822H1369.27ZM1369.27 345.947V348.117H1380.06V345.947H1369.27ZM1367.1 344.18H1382.32V353.79H1367.1V344.18ZM1373.45 353.511H1375.72C1375.55 355.019 1375.28 356.394 1374.91 357.634C1374.56 358.874 1374.02 359.979 1373.3 360.951C1372.58 361.922 1371.58 362.759 1370.32 363.462C1369.08 364.185 1367.49 364.774 1365.55 365.229C1365.45 364.96 1365.27 364.64 1365.02 364.268C1364.77 363.896 1364.54 363.596 1364.31 363.369C1366.11 362.997 1367.56 362.511 1368.68 361.912C1369.82 361.312 1370.71 360.61 1371.35 359.804C1371.99 358.977 1372.46 358.047 1372.77 357.014C1373.08 355.96 1373.31 354.792 1373.45 353.511ZM1376.24 357.014C1376.91 358.626 1377.95 359.969 1379.37 361.044C1380.8 362.118 1382.54 362.873 1384.58 363.307C1384.44 363.451 1384.26 363.637 1384.06 363.865C1383.87 364.092 1383.69 364.319 1383.53 364.547C1383.38 364.795 1383.26 365.022 1383.16 365.229C1380.95 364.629 1379.1 363.679 1377.61 362.377C1376.12 361.054 1375.01 359.411 1374.29 357.448L1376.24 357.014ZM1356.19 342.692H1365.49V344.862H1356.19V342.692ZM1360.06 336.709H1362.29V365.198H1360.06V336.709ZM1360.22 344.087L1361.64 344.583C1361.44 345.823 1361.16 347.114 1360.81 348.458C1360.48 349.801 1360.1 351.124 1359.69 352.426C1359.28 353.707 1358.83 354.906 1358.36 356.022C1357.88 357.138 1357.39 358.099 1356.87 358.905C1356.79 358.677 1356.67 358.429 1356.53 358.161C1356.38 357.871 1356.23 357.592 1356.06 357.324C1355.92 357.055 1355.77 356.828 1355.63 356.642C1356.1 355.96 1356.57 355.133 1357.02 354.162C1357.5 353.17 1357.94 352.105 1358.36 350.969C1358.77 349.832 1359.13 348.675 1359.44 347.497C1359.75 346.319 1360.01 345.182 1360.22 344.087ZM1362.17 345.978C1362.36 346.226 1362.62 346.639 1362.98 347.218C1363.35 347.776 1363.73 348.396 1364.12 349.078C1364.54 349.739 1364.91 350.359 1365.24 350.938C1365.59 351.516 1365.84 351.94 1365.98 352.209L1364.49 353.883C1364.35 353.469 1364.12 352.942 1363.81 352.302C1363.5 351.64 1363.17 350.958 1362.82 350.256C1362.47 349.553 1362.13 348.902 1361.8 348.303C1361.47 347.703 1361.21 347.228 1361.02 346.877L1362.17 345.978ZM1388.74 337.98H1402.75V340.026H1388.74V337.98ZM1387.71 344.304H1403.4V346.381H1387.71V344.304ZM1387.09 361.974H1415.15V364.144H1387.09V361.974ZM1390.32 355.898H1411.92V358.037H1390.32V355.898ZM1397.66 338.817H1399.87V353.046H1397.66V338.817ZM1400.11 352.457H1402.5V363.462H1400.11V352.457ZM1405.32 338.476H1407.46V348.861H1405.32V338.476ZM1411.12 336.895H1413.32V350.783C1413.32 351.423 1413.24 351.909 1413.07 352.24C1412.93 352.57 1412.62 352.829 1412.14 353.015C1411.67 353.18 1411.05 353.294 1410.28 353.356C1409.52 353.397 1408.59 353.418 1407.49 353.418C1407.43 353.108 1407.33 352.756 1407.18 352.364C1407.04 351.95 1406.88 351.589 1406.72 351.279C1407.61 351.299 1408.4 351.32 1409.1 351.341C1409.81 351.341 1410.27 351.33 1410.5 351.31C1410.75 351.289 1410.91 351.248 1410.99 351.186C1411.08 351.103 1411.12 350.958 1411.12 350.752V336.895ZM1391.68 338.848H1393.82V344.118C1393.82 345.192 1393.7 346.319 1393.45 347.497C1393.22 348.675 1392.76 349.811 1392.05 350.907C1391.37 352.002 1390.35 352.973 1388.98 353.821C1388.9 353.655 1388.76 353.469 1388.55 353.263C1388.36 353.056 1388.17 352.86 1387.96 352.674C1387.78 352.467 1387.61 352.312 1387.47 352.209C1388.71 351.444 1389.62 350.607 1390.19 349.698C1390.79 348.788 1391.19 347.848 1391.37 346.877C1391.58 345.905 1391.68 344.975 1391.68 344.087V338.848ZM1435.79 336.709H1438.15V342.041H1435.79V336.709ZM1428.51 341.018H1446.02V347.032H1443.76V343.095H1430.71V347.063H1428.51V341.018ZM1434.77 344.18L1437.07 344.552C1436.69 345.688 1436.29 346.897 1435.86 348.179C1435.42 349.46 1434.98 350.752 1434.52 352.054C1434.07 353.335 1433.62 354.565 1433.19 355.743C1432.76 356.9 1432.34 357.944 1431.95 358.874L1429.81 358.192C1430.18 357.303 1430.59 356.29 1431.02 355.154C1431.48 353.996 1431.92 352.777 1432.35 351.496C1432.81 350.214 1433.24 348.954 1433.66 347.714C1434.07 346.453 1434.44 345.275 1434.77 344.18ZM1428.23 349.14H1446.4V351.279H1428.23V349.14ZM1441 350.411L1443.45 350.535C1443.1 352.829 1442.53 354.802 1441.75 356.456C1440.98 358.109 1439.99 359.504 1438.77 360.641C1437.55 361.777 1436.07 362.718 1434.34 363.462C1432.62 364.206 1430.63 364.805 1428.35 365.26C1428.31 365.074 1428.22 364.857 1428.08 364.609C1427.93 364.361 1427.78 364.113 1427.61 363.865C1427.47 363.617 1427.31 363.42 1427.15 363.276C1430.02 362.78 1432.42 362.046 1434.34 361.075C1436.26 360.103 1437.76 358.76 1438.83 357.045C1439.93 355.329 1440.65 353.118 1441 350.411ZM1431.21 357.479L1432.57 355.774C1433.81 356.187 1435.09 356.673 1436.41 357.231C1437.74 357.789 1439.02 358.409 1440.26 359.091C1441.52 359.752 1442.68 360.444 1443.73 361.168C1444.78 361.87 1445.67 362.573 1446.4 363.276L1444.88 365.198C1444.18 364.495 1443.31 363.772 1442.27 363.028C1441.26 362.304 1440.13 361.602 1438.89 360.92C1437.68 360.238 1436.4 359.607 1435.08 359.029C1433.76 358.429 1432.47 357.913 1431.21 357.479ZM1417.5 353.201C1418.85 352.829 1420.45 352.384 1422.31 351.868C1424.19 351.33 1426.08 350.783 1427.98 350.225L1428.29 352.302C1426.52 352.86 1424.74 353.418 1422.96 353.976C1421.2 354.534 1419.6 355.03 1418.16 355.464L1417.5 353.201ZM1417.94 342.94H1427.95V345.141H1417.94V342.94ZM1422.25 336.709H1424.48V362.532C1424.48 363.172 1424.4 363.668 1424.23 364.02C1424.07 364.371 1423.79 364.64 1423.39 364.826C1422.98 364.991 1422.44 365.094 1421.78 365.136C1421.14 365.198 1420.31 365.229 1419.27 365.229C1419.23 364.939 1419.14 364.588 1418.99 364.175C1418.85 363.782 1418.7 363.431 1418.56 363.121C1419.26 363.141 1419.9 363.152 1420.48 363.152C1421.06 363.152 1421.45 363.141 1421.66 363.121C1421.87 363.121 1422.01 363.079 1422.09 362.997C1422.2 362.914 1422.25 362.759 1422.25 362.532V336.709ZM1454.36 346.288H1462.39V348.582H1454.36V346.288ZM1453 336.864H1455.39V362.16L1453 362.718V336.864ZM1448.85 362.129C1450.09 361.901 1451.5 361.622 1453.09 361.292C1454.68 360.94 1456.36 360.558 1458.11 360.145C1459.87 359.731 1461.62 359.328 1463.35 358.936L1463.57 361.168C1461.94 361.56 1460.28 361.963 1458.61 362.377C1456.96 362.79 1455.36 363.172 1453.81 363.524C1452.28 363.896 1450.86 364.237 1449.56 364.547L1448.85 362.129ZM1474.73 343.498L1476.47 345.451C1475.54 346.071 1474.49 346.68 1473.34 347.28C1472.2 347.879 1471.01 348.458 1469.77 349.016C1468.55 349.574 1467.36 350.101 1466.21 350.597C1466.12 350.328 1466 350.018 1465.83 349.667C1465.69 349.295 1465.53 348.995 1465.37 348.768C1466.51 348.272 1467.64 347.734 1468.78 347.156C1469.94 346.556 1471.03 345.947 1472.06 345.327C1473.12 344.686 1474.01 344.076 1474.73 343.498ZM1464.69 336.864H1467.07V360.331C1467.07 361.178 1467.18 361.726 1467.38 361.974C1467.59 362.222 1468.07 362.346 1468.81 362.346C1468.98 362.346 1469.27 362.346 1469.71 362.346C1470.14 362.346 1470.62 362.346 1471.13 362.346C1471.67 362.346 1472.17 362.346 1472.62 362.346C1473.08 362.346 1473.42 362.346 1473.65 362.346C1474.12 362.346 1474.47 362.191 1474.7 361.881C1474.95 361.571 1475.12 361.002 1475.23 360.176C1475.33 359.349 1475.41 358.192 1475.47 356.704C1475.76 356.931 1476.12 357.138 1476.53 357.324C1476.94 357.51 1477.32 357.644 1477.68 357.727C1477.57 359.421 1477.41 360.765 1477.18 361.757C1476.95 362.749 1476.57 363.462 1476.03 363.896C1475.52 364.33 1474.76 364.547 1473.77 364.547C1473.65 364.547 1473.41 364.547 1473.06 364.547C1472.71 364.547 1472.29 364.547 1471.82 364.547C1471.36 364.547 1470.91 364.547 1470.45 364.547C1470.02 364.547 1469.63 364.547 1469.27 364.547C1468.92 364.547 1468.69 364.547 1468.56 364.547C1467.55 364.547 1466.76 364.423 1466.21 364.175C1465.65 363.947 1465.26 363.524 1465.03 362.904C1464.8 362.284 1464.69 361.405 1464.69 360.269V336.864ZM1488.12 338.29H1499.41V340.367H1488.12V338.29ZM1491.16 344.769H1497.11V346.846H1490.51L1491.16 344.769ZM1489.36 351.806L1490.35 350.07C1490.95 350.442 1491.54 350.855 1492.12 351.31C1492.72 351.764 1493.28 352.209 1493.8 352.643C1494.33 353.077 1494.76 353.469 1495.07 353.821L1494.07 355.836C1493.74 355.443 1493.32 355.009 1492.8 354.534C1492.29 354.058 1491.73 353.583 1491.13 353.108C1490.53 352.632 1489.94 352.198 1489.36 351.806ZM1499.56 340.212H1501.67V358.13H1499.56V340.212ZM1505.23 337.205H1507.4V362.284C1507.4 363.028 1507.31 363.586 1507.13 363.958C1506.94 364.33 1506.62 364.609 1506.16 364.795C1505.71 364.981 1505.08 365.105 1504.27 365.167C1503.49 365.229 1502.49 365.26 1501.27 365.26C1501.2 364.95 1501.1 364.567 1500.96 364.113C1500.81 363.679 1500.66 363.296 1500.49 362.966C1501.44 362.986 1502.29 362.997 1503.03 362.997C1503.78 363.017 1504.28 363.017 1504.55 362.997C1504.8 362.976 1504.98 362.914 1505.08 362.811C1505.18 362.728 1505.23 362.563 1505.23 362.315V337.205ZM1491.16 339.003L1493.39 339.344C1493.19 340.687 1492.93 342.082 1492.62 343.529C1492.31 344.955 1491.93 346.37 1491.47 347.776C1491.02 349.181 1490.47 350.514 1489.83 351.775C1489.21 353.035 1488.47 354.162 1487.63 355.154C1487.52 355.009 1487.39 354.833 1487.22 354.627C1487.06 354.42 1486.88 354.224 1486.7 354.038C1486.51 353.852 1486.35 353.697 1486.2 353.573C1486.97 352.663 1487.63 351.63 1488.18 350.473C1488.74 349.295 1489.21 348.055 1489.58 346.753C1489.97 345.43 1490.29 344.107 1490.54 342.785C1490.79 341.462 1491 340.201 1491.16 339.003ZM1496.21 344.769H1496.65L1497.02 344.676L1498.38 345.141C1497.78 350.183 1496.66 354.379 1495 357.727C1493.37 361.054 1491.37 363.575 1488.99 365.291C1488.89 365.105 1488.74 364.898 1488.56 364.671C1488.37 364.443 1488.17 364.226 1487.97 364.02C1487.78 363.813 1487.61 363.648 1487.44 363.524C1489.73 361.953 1491.64 359.649 1493.14 356.611C1494.67 353.573 1495.7 349.791 1496.21 345.265V344.769ZM1485.86 336.833L1488 337.453C1487.42 339.209 1486.73 340.966 1485.92 342.723C1485.14 344.479 1484.28 346.133 1483.35 347.683C1482.42 349.233 1481.45 350.597 1480.43 351.775C1480.37 351.609 1480.26 351.382 1480.09 351.093C1479.95 350.783 1479.79 350.473 1479.63 350.163C1479.46 349.853 1479.32 349.605 1479.19 349.419C1480.1 348.385 1480.97 347.197 1481.8 345.854C1482.63 344.49 1483.38 343.043 1484.06 341.514C1484.76 339.964 1485.36 338.403 1485.86 336.833ZM1483.35 344.459L1485.46 342.382L1485.52 342.444V365.229H1483.35V344.459ZM1511.78 357.107C1511.73 356.962 1511.67 356.766 1511.59 356.518C1511.51 356.27 1511.42 356.022 1511.34 355.774C1511.26 355.505 1511.18 355.278 1511.09 355.092C1511.4 355.03 1511.72 354.823 1512.05 354.472C1512.41 354.1 1512.81 353.635 1513.26 353.077C1513.49 352.787 1513.82 352.322 1514.26 351.682C1514.71 351.041 1515.21 350.287 1515.74 349.419C1516.3 348.53 1516.86 347.579 1517.42 346.567C1517.98 345.554 1518.49 344.541 1518.97 343.529L1520.83 344.583C1519.73 346.649 1518.53 348.685 1517.23 350.69C1515.93 352.674 1514.61 354.42 1513.26 355.929V355.991C1513.26 355.991 1513.19 356.032 1513.05 356.115C1512.9 356.177 1512.73 356.27 1512.52 356.394C1512.31 356.497 1512.14 356.611 1511.99 356.735C1511.85 356.859 1511.78 356.983 1511.78 357.107ZM1511.78 357.107L1511.62 355.247L1512.64 354.503L1519.4 352.984C1519.4 353.273 1519.41 353.604 1519.43 353.976C1519.45 354.348 1519.47 354.647 1519.49 354.875C1517.92 355.247 1516.66 355.567 1515.71 355.836C1514.76 356.084 1514.02 356.29 1513.48 356.456C1512.96 356.6 1512.58 356.724 1512.33 356.828C1512.11 356.931 1511.92 357.024 1511.78 357.107ZM1511.59 349.636C1511.55 349.491 1511.49 349.295 1511.4 349.047C1511.32 348.778 1511.23 348.509 1511.12 348.241C1511.04 347.972 1510.95 347.734 1510.85 347.528C1511.14 347.466 1511.41 347.269 1511.68 346.939C1511.97 346.587 1512.27 346.143 1512.58 345.606C1512.77 345.358 1513.02 344.934 1513.33 344.335C1513.66 343.735 1514.02 343.033 1514.41 342.227C1514.82 341.4 1515.23 340.522 1515.62 339.592C1516.01 338.662 1516.36 337.732 1516.67 336.802L1518.75 337.732C1518.21 339.013 1517.63 340.294 1517.01 341.576C1516.39 342.857 1515.73 344.087 1515.03 345.265C1514.35 346.422 1513.66 347.466 1512.95 348.396V348.458C1512.95 348.458 1512.88 348.499 1512.74 348.582C1512.61 348.664 1512.46 348.768 1512.27 348.892C1512.09 349.016 1511.92 349.14 1511.78 349.264C1511.65 349.388 1511.59 349.512 1511.59 349.636ZM1511.59 349.636L1511.53 347.962L1512.61 347.249L1517.98 346.784C1517.93 347.073 1517.89 347.404 1517.85 347.776C1517.83 348.127 1517.82 348.427 1517.82 348.675C1516.58 348.799 1515.58 348.912 1514.81 349.016C1514.07 349.119 1513.48 349.212 1513.05 349.295C1512.61 349.357 1512.29 349.419 1512.09 349.481C1511.88 349.543 1511.71 349.594 1511.59 349.636ZM1511 361.106C1512.18 360.734 1513.58 360.248 1515.22 359.649C1516.87 359.049 1518.56 358.44 1520.3 357.82L1520.7 359.773C1519.09 360.393 1517.49 361.013 1515.9 361.633C1514.31 362.253 1512.86 362.811 1511.56 363.307L1511 361.106ZM1531.34 345.854L1533.66 346.288C1533.43 347.218 1533.19 348.168 1532.92 349.14C1532.67 350.111 1532.43 350.938 1532.2 351.62L1530.25 351.186C1530.4 350.71 1530.54 350.163 1530.69 349.543C1530.83 348.902 1530.95 348.261 1531.06 347.621C1531.18 346.959 1531.27 346.37 1531.34 345.854ZM1521.08 339.716H1539.12V344.335H1536.89V341.7H1523.21V344.769H1521.08V339.716ZM1524.27 343.777L1526.35 344.304C1525.97 345.544 1525.51 346.835 1524.95 348.179C1524.39 349.522 1523.75 350.803 1523.03 352.023C1522.31 353.242 1521.51 354.317 1520.64 355.247C1520.5 355.04 1520.3 354.782 1520.05 354.472C1519.8 354.141 1519.59 353.893 1519.4 353.728C1520.19 352.86 1520.89 351.868 1521.51 350.752C1522.15 349.615 1522.7 348.447 1523.15 347.249C1523.63 346.029 1524 344.872 1524.27 343.777ZM1526.59 345.172H1538.65V347.094H1526.59V345.172ZM1528.02 355.898H1537.07V357.789H1528.02V355.898ZM1527.06 350.225H1538.22V365.043H1536.11V352.147H1529.07V365.198H1527.06V350.225ZM1522.63 350.039L1524.52 348.148L1524.61 348.241V365.229H1522.63V350.039ZM1527.93 337.298L1529.88 336.616C1530.23 337.153 1530.57 337.752 1530.9 338.414C1531.25 339.054 1531.52 339.602 1531.71 340.057L1529.66 340.863C1529.5 340.387 1529.25 339.809 1528.92 339.127C1528.59 338.445 1528.26 337.835 1527.93 337.298ZM1528.08 361.85H1537.07V363.741H1528.08V361.85ZM1542 341.731H1555.76V343.901H1542V341.731ZM1547.02 348.024H1552.97V350.194H1547.02V348.024ZM1547.67 336.771H1549.97V342.754H1547.67V336.771ZM1552.17 348.024H1554.37C1554.37 348.024 1554.37 348.096 1554.37 348.241C1554.37 348.365 1554.37 348.509 1554.37 348.675C1554.37 348.84 1554.36 348.985 1554.34 349.109C1554.3 351.692 1554.25 353.883 1554.18 355.681C1554.12 357.458 1554.05 358.925 1553.97 360.083C1553.88 361.219 1553.77 362.098 1553.63 362.718C1553.5 363.338 1553.34 363.782 1553.13 364.051C1552.88 364.402 1552.61 364.64 1552.32 364.764C1552.06 364.908 1551.7 365.012 1551.27 365.074C1550.9 365.115 1550.4 365.136 1549.78 365.136C1549.18 365.136 1548.55 365.125 1547.89 365.105C1547.87 364.774 1547.81 364.402 1547.7 363.989C1547.6 363.575 1547.46 363.224 1547.27 362.935C1547.91 362.976 1548.5 363.007 1549.04 363.028C1549.6 363.048 1549.99 363.059 1550.22 363.059C1550.44 363.059 1550.63 363.028 1550.77 362.966C1550.92 362.924 1551.05 362.811 1551.18 362.625C1551.36 362.377 1551.52 361.777 1551.64 360.827C1551.77 359.876 1551.87 358.419 1551.95 356.456C1552.03 354.472 1552.11 351.826 1552.17 348.52V348.024ZM1558.68 342.506H1570.46V344.676H1558.68V342.506ZM1559.39 336.678L1561.78 337.05C1561.43 338.992 1560.99 340.883 1560.48 342.723C1559.96 344.562 1559.36 346.277 1558.68 347.869C1558.02 349.439 1557.26 350.824 1556.42 352.023C1556.27 351.878 1556.07 351.713 1555.83 351.527C1555.6 351.341 1555.35 351.155 1555.08 350.969C1554.83 350.783 1554.62 350.628 1554.43 350.504C1555.26 349.408 1555.98 348.127 1556.6 346.66C1557.24 345.192 1557.79 343.611 1558.24 341.917C1558.72 340.201 1559.1 338.455 1559.39 336.678ZM1565.99 343.653L1568.29 343.932C1567.73 347.507 1566.92 350.648 1565.87 353.356C1564.84 356.063 1563.44 358.398 1561.69 360.362C1559.93 362.304 1557.7 363.947 1554.99 365.291C1554.93 365.105 1554.81 364.888 1554.65 364.64C1554.5 364.392 1554.34 364.133 1554.15 363.865C1553.97 363.617 1553.8 363.41 1553.66 363.245C1556.22 362.108 1558.32 360.651 1559.95 358.874C1561.6 357.076 1562.91 354.916 1563.86 352.395C1564.83 349.873 1565.54 346.959 1565.99 343.653ZM1559.61 344.49C1560.13 347.342 1560.84 350.008 1561.75 352.488C1562.68 354.947 1563.88 357.096 1565.34 358.936C1566.81 360.775 1568.59 362.191 1570.68 363.183C1570.51 363.327 1570.31 363.513 1570.09 363.741C1569.88 363.989 1569.68 364.226 1569.5 364.454C1569.33 364.702 1569.19 364.939 1569.06 365.167C1566.87 364.009 1565.02 362.449 1563.51 360.486C1562.03 358.502 1560.81 356.187 1559.86 353.542C1558.91 350.876 1558.14 347.982 1557.56 344.862L1559.61 344.49ZM1545.66 342.785H1547.89V350.38C1547.89 352.074 1547.78 353.79 1547.55 355.526C1547.34 357.241 1546.9 358.915 1546.22 360.548C1545.56 362.18 1544.53 363.73 1543.15 365.198C1542.94 364.95 1542.67 364.681 1542.34 364.392C1542.01 364.123 1541.7 363.885 1541.41 363.679C1542.67 362.335 1543.6 360.92 1544.2 359.432C1544.82 357.923 1545.21 356.404 1545.38 354.875C1545.57 353.325 1545.66 351.816 1545.66 350.349V342.785Z" fill="#3FA5FF"/>
<path d="M402.797 362.282H420.932V364.266H402.797V362.282ZM402.177 379.363H420.87V381.347H402.177V379.363ZM407.354 359.709H409.555V366.591H407.354V359.709ZM414.329 359.709H416.592V366.591H414.329V359.709ZM406.269 372.822V375.054H417.057V372.822H406.269ZM406.269 368.947V371.117H417.057V368.947H406.269ZM404.099 367.18H419.32V376.79H404.099V367.18ZM410.454 376.511H412.717C412.551 378.019 412.283 379.394 411.911 380.634C411.559 381.874 411.022 382.979 410.299 383.951C409.575 384.922 408.583 385.759 407.323 386.462C406.083 387.185 404.491 387.774 402.549 388.229C402.445 387.96 402.27 387.64 402.022 387.268C401.774 386.896 401.536 386.596 401.309 386.369C403.107 385.997 404.564 385.511 405.68 384.912C406.816 384.312 407.705 383.61 408.346 382.804C408.986 381.977 409.462 381.047 409.772 380.014C410.082 378.96 410.309 377.792 410.454 376.511ZM413.244 380.014C413.905 381.626 414.949 382.969 416.375 384.044C417.801 385.118 419.537 385.873 421.583 386.307C421.438 386.451 421.262 386.637 421.056 386.865C420.87 387.092 420.694 387.319 420.529 387.547C420.384 387.795 420.26 388.022 420.157 388.229C417.945 387.629 416.096 386.679 414.608 385.377C413.12 384.054 412.014 382.411 411.291 380.448L413.244 380.014ZM393.187 365.692H402.487V367.862H393.187V365.692ZM397.062 359.709H399.294V388.198H397.062V359.709ZM397.217 367.087L398.643 367.583C398.436 368.823 398.157 370.114 397.806 371.458C397.475 372.801 397.103 374.124 396.69 375.426C396.276 376.707 395.832 377.906 395.357 379.022C394.881 380.138 394.385 381.099 393.869 381.905C393.786 381.677 393.672 381.429 393.528 381.161C393.383 380.871 393.228 380.592 393.063 380.324C392.918 380.055 392.773 379.828 392.629 379.642C393.104 378.96 393.569 378.133 394.024 377.162C394.499 376.17 394.943 375.105 395.357 373.969C395.77 372.832 396.132 371.675 396.442 370.497C396.752 369.319 397.01 368.182 397.217 367.087ZM399.17 368.978C399.356 369.226 399.624 369.639 399.976 370.218C400.348 370.776 400.73 371.396 401.123 372.078C401.536 372.739 401.908 373.359 402.239 373.938C402.59 374.516 402.838 374.94 402.983 375.209L401.495 376.883C401.35 376.469 401.123 375.942 400.813 375.302C400.503 374.64 400.172 373.958 399.821 373.256C399.469 372.553 399.128 371.902 398.798 371.303C398.467 370.703 398.209 370.228 398.023 369.877L399.17 368.978ZM425.737 360.98H439.749V363.026H425.737V360.98ZM424.714 367.304H440.4V369.381H424.714V367.304ZM424.094 384.974H452.149V387.144H424.094V384.974ZM427.318 378.898H448.925V381.037H427.318V378.898ZM434.665 361.817H436.866V376.046H434.665V361.817ZM437.114 375.457H439.501V386.462H437.114V375.457ZM442.322 361.476H444.461V371.861H442.322V361.476ZM448.119 359.895H450.32V373.783C450.32 374.423 450.237 374.909 450.072 375.24C449.927 375.57 449.617 375.829 449.142 376.015C448.666 376.18 448.046 376.294 447.282 376.356C446.517 376.397 445.587 376.418 444.492 376.418C444.43 376.108 444.326 375.756 444.182 375.364C444.037 374.95 443.882 374.589 443.717 374.279C444.605 374.299 445.401 374.32 446.104 374.341C446.806 374.341 447.271 374.33 447.499 374.31C447.747 374.289 447.912 374.248 447.995 374.186C448.077 374.103 448.119 373.958 448.119 373.752V359.895ZM428.682 361.848H430.821V367.118C430.821 368.192 430.697 369.319 430.449 370.497C430.221 371.675 429.756 372.811 429.054 373.907C428.372 375.002 427.349 375.973 425.985 376.821C425.902 376.655 425.757 376.469 425.551 376.263C425.365 376.056 425.168 375.86 424.962 375.674C424.776 375.467 424.61 375.312 424.466 375.209C425.706 374.444 426.615 373.607 427.194 372.698C427.793 371.788 428.186 370.848 428.372 369.877C428.578 368.905 428.682 367.975 428.682 367.087V361.848ZM472.795 359.709H475.151V365.041H472.795V359.709ZM465.51 364.018H483.025V370.032H480.762V366.095H467.711V370.063H465.51V364.018ZM471.772 367.18L474.066 367.552C473.694 368.688 473.291 369.897 472.857 371.179C472.423 372.46 471.978 373.752 471.524 375.054C471.069 376.335 470.625 377.565 470.191 378.743C469.757 379.9 469.343 380.944 468.951 381.874L466.812 381.192C467.184 380.303 467.587 379.29 468.021 378.154C468.475 376.996 468.92 375.777 469.354 374.496C469.808 373.214 470.242 371.954 470.656 370.714C471.069 369.453 471.441 368.275 471.772 367.18ZM465.231 372.14H483.397V374.279H465.231V372.14ZM478.003 373.411L480.452 373.535C480.1 375.829 479.532 377.802 478.747 379.456C477.982 381.109 476.99 382.504 475.771 383.641C474.551 384.777 473.074 385.718 471.338 386.462C469.622 387.206 467.628 387.805 465.355 388.26C465.313 388.074 465.22 387.857 465.076 387.609C464.931 387.361 464.776 387.113 464.611 386.865C464.466 386.617 464.311 386.42 464.146 386.276C467.018 385.78 469.416 385.046 471.338 384.075C473.26 383.103 474.758 381.76 475.833 380.045C476.928 378.329 477.651 376.118 478.003 373.411ZM468.207 380.479L469.571 378.774C470.811 379.187 472.092 379.673 473.415 380.231C474.737 380.789 476.019 381.409 477.259 382.091C478.519 382.752 479.677 383.444 480.731 384.168C481.785 384.87 482.673 385.573 483.397 386.276L481.878 388.198C481.175 387.495 480.307 386.772 479.274 386.028C478.261 385.304 477.135 384.602 475.895 383.92C474.675 383.238 473.404 382.607 472.082 382.029C470.759 381.429 469.467 380.913 468.207 380.479ZM454.505 376.201C455.848 375.829 457.45 375.384 459.31 374.868C461.19 374.33 463.081 373.783 464.983 373.225L465.293 375.302C463.515 375.86 461.738 376.418 459.961 376.976C458.204 377.534 456.602 378.03 455.156 378.464L454.505 376.201ZM454.939 365.94H464.952V368.141H454.939V365.94ZM459.248 359.709H461.48V385.532C461.48 386.172 461.397 386.668 461.232 387.02C461.066 387.371 460.787 387.64 460.395 387.826C459.981 387.991 459.444 388.094 458.783 388.136C458.142 388.198 457.305 388.229 456.272 388.229C456.23 387.939 456.137 387.588 455.993 387.175C455.848 386.782 455.703 386.431 455.559 386.121C456.261 386.141 456.902 386.152 457.481 386.152C458.059 386.152 458.452 386.141 458.659 386.121C458.865 386.121 459.01 386.079 459.093 385.997C459.196 385.914 459.248 385.759 459.248 385.532V359.709ZM491.364 369.288H499.393V371.582H491.364V369.288ZM490 359.864H492.387V385.16L490 385.718V359.864ZM485.846 385.129C487.086 384.901 488.501 384.622 490.093 384.292C491.684 383.94 493.358 383.558 495.115 383.145C496.871 382.731 498.618 382.328 500.354 381.936L500.571 384.168C498.938 384.56 497.285 384.963 495.611 385.377C493.957 385.79 492.356 386.172 490.806 386.524C489.276 386.896 487.861 387.237 486.559 387.547L485.846 385.129ZM511.731 366.498L513.467 368.451C512.537 369.071 511.493 369.68 510.336 370.28C509.199 370.879 508.011 371.458 506.771 372.016C505.551 372.574 504.363 373.101 503.206 373.597C503.123 373.328 502.999 373.018 502.834 372.667C502.689 372.295 502.534 371.995 502.369 371.768C503.505 371.272 504.642 370.734 505.779 370.156C506.936 369.556 508.031 368.947 509.065 368.327C510.119 367.686 511.007 367.076 511.731 366.498ZM501.687 359.864H504.074V383.331C504.074 384.178 504.177 384.726 504.384 384.974C504.59 385.222 505.066 385.346 505.81 385.346C505.975 385.346 506.275 385.346 506.709 385.346C507.143 385.346 507.618 385.346 508.135 385.346C508.672 385.346 509.168 385.346 509.623 385.346C510.077 385.346 510.418 385.346 510.646 385.346C511.121 385.346 511.472 385.191 511.7 384.881C511.948 384.571 512.123 384.002 512.227 383.176C512.33 382.349 512.413 381.192 512.475 379.704C512.764 379.931 513.115 380.138 513.529 380.324C513.942 380.51 514.324 380.644 514.676 380.727C514.572 382.421 514.407 383.765 514.18 384.757C513.952 385.749 513.57 386.462 513.033 386.896C512.516 387.33 511.762 387.547 510.77 387.547C510.646 387.547 510.408 387.547 510.057 387.547C509.705 387.547 509.292 387.547 508.817 387.547C508.362 387.547 507.907 387.547 507.453 387.547C507.019 387.547 506.626 387.547 506.275 387.547C505.923 387.547 505.686 387.547 505.562 387.547C504.549 387.547 503.764 387.423 503.206 387.175C502.648 386.947 502.255 386.524 502.028 385.904C501.8 385.284 501.687 384.405 501.687 383.269V359.864ZM525.123 361.29H536.407V363.367H525.123V361.29ZM528.161 367.769H534.113V369.846H527.51L528.161 367.769ZM526.363 374.806L527.355 373.07C527.954 373.442 528.543 373.855 529.122 374.31C529.721 374.764 530.279 375.209 530.796 375.643C531.333 376.077 531.757 376.469 532.067 376.821L531.075 378.836C530.744 378.443 530.32 378.009 529.804 377.534C529.287 377.058 528.729 376.583 528.13 376.108C527.53 375.632 526.941 375.198 526.363 374.806ZM536.562 363.212H538.67V381.13H536.562V363.212ZM542.235 360.205H544.405V385.284C544.405 386.028 544.312 386.586 544.126 386.958C543.94 387.33 543.619 387.609 543.165 387.795C542.71 387.981 542.08 388.105 541.274 388.167C540.488 388.229 539.486 388.26 538.267 388.26C538.205 387.95 538.101 387.567 537.957 387.113C537.812 386.679 537.657 386.296 537.492 385.966C538.442 385.986 539.29 385.997 540.034 385.997C540.778 386.017 541.284 386.017 541.553 385.997C541.801 385.976 541.976 385.914 542.08 385.811C542.183 385.728 542.235 385.563 542.235 385.315V360.205ZM528.161 362.003L530.393 362.344C530.186 363.687 529.928 365.082 529.618 366.529C529.308 367.955 528.925 369.37 528.471 370.776C528.016 372.181 527.468 373.514 526.828 374.775C526.208 376.035 525.474 377.162 524.627 378.154C524.523 378.009 524.389 377.833 524.224 377.627C524.058 377.42 523.883 377.224 523.697 377.038C523.511 376.852 523.345 376.697 523.201 376.573C523.965 375.663 524.627 374.63 525.185 373.473C525.743 372.295 526.208 371.055 526.58 369.753C526.972 368.43 527.293 367.107 527.541 365.785C527.789 364.462 527.995 363.201 528.161 362.003ZM533.214 367.769H533.648L534.02 367.676L535.384 368.141C534.784 373.183 533.658 377.379 532.005 380.727C530.372 384.054 528.367 386.575 525.991 388.291C525.887 388.105 525.743 387.898 525.557 387.671C525.371 387.443 525.174 387.226 524.968 387.02C524.782 386.813 524.606 386.648 524.441 386.524C526.735 384.953 528.636 382.649 530.145 379.611C531.674 376.573 532.697 372.791 533.214 368.265V367.769ZM522.86 359.833L524.999 360.453C524.42 362.209 523.728 363.966 522.922 365.723C522.136 367.479 521.279 369.133 520.349 370.683C519.419 372.233 518.447 373.597 517.435 374.775C517.373 374.609 517.259 374.382 517.094 374.093C516.949 373.783 516.794 373.473 516.629 373.163C516.463 372.853 516.319 372.605 516.195 372.419C517.104 371.385 517.972 370.197 518.799 368.854C519.625 367.49 520.38 366.043 521.062 364.514C521.764 362.964 522.364 361.403 522.86 359.833ZM520.349 367.459L522.457 365.382L522.519 365.444V388.229H520.349V367.459ZM548.776 380.107C548.734 379.962 548.672 379.766 548.59 379.518C548.507 379.27 548.424 379.022 548.342 378.774C548.259 378.505 548.176 378.278 548.094 378.092C548.404 378.03 548.724 377.823 549.055 377.472C549.406 377.1 549.809 376.635 550.264 376.077C550.491 375.787 550.822 375.322 551.256 374.682C551.71 374.041 552.206 373.287 552.744 372.419C553.302 371.53 553.86 370.579 554.418 369.567C554.976 368.554 555.492 367.541 555.968 366.529L557.828 367.583C556.732 369.649 555.534 371.685 554.232 373.69C552.93 375.674 551.607 377.42 550.264 378.929V378.991C550.264 378.991 550.191 379.032 550.047 379.115C549.902 379.177 549.726 379.27 549.52 379.394C549.313 379.497 549.137 379.611 548.993 379.735C548.848 379.859 548.776 379.983 548.776 380.107ZM548.776 380.107L548.621 378.247L549.644 377.503L556.402 375.984C556.402 376.273 556.412 376.604 556.433 376.976C556.453 377.348 556.474 377.647 556.495 377.875C554.924 378.247 553.663 378.567 552.713 378.836C551.762 379.084 551.018 379.29 550.481 379.456C549.964 379.6 549.582 379.724 549.334 379.828C549.106 379.931 548.92 380.024 548.776 380.107ZM548.59 372.636C548.548 372.491 548.486 372.295 548.404 372.047C548.321 371.778 548.228 371.509 548.125 371.241C548.042 370.972 547.949 370.734 547.846 370.528C548.135 370.466 548.414 370.269 548.683 369.939C548.972 369.587 549.272 369.143 549.582 368.606C549.768 368.358 550.016 367.934 550.326 367.335C550.656 366.735 551.018 366.033 551.411 365.227C551.824 364.4 552.227 363.522 552.62 362.592C553.012 361.662 553.364 360.732 553.674 359.802L555.751 360.732C555.213 362.013 554.635 363.294 554.015 364.576C553.395 365.857 552.733 367.087 552.031 368.265C551.349 369.422 550.656 370.466 549.954 371.396V371.458C549.954 371.458 549.881 371.499 549.737 371.582C549.613 371.664 549.458 371.768 549.272 371.892C549.086 372.016 548.92 372.14 548.776 372.264C548.652 372.388 548.59 372.512 548.59 372.636ZM548.59 372.636L548.528 370.962L549.613 370.249L554.976 369.784C554.934 370.073 554.893 370.404 554.852 370.776C554.831 371.127 554.821 371.427 554.821 371.675C553.581 371.799 552.578 371.912 551.814 372.016C551.07 372.119 550.481 372.212 550.047 372.295C549.613 372.357 549.292 372.419 549.086 372.481C548.879 372.543 548.714 372.594 548.59 372.636ZM548.001 384.106C549.179 383.734 550.584 383.248 552.217 382.649C553.87 382.049 555.565 381.44 557.301 380.82L557.704 382.773C556.092 383.393 554.49 384.013 552.899 384.633C551.307 385.253 549.861 385.811 548.559 386.307L548.001 384.106ZM568.337 368.854L570.662 369.288C570.434 370.218 570.186 371.168 569.918 372.14C569.67 373.111 569.432 373.938 569.205 374.62L567.252 374.186C567.396 373.71 567.541 373.163 567.686 372.543C567.83 371.902 567.954 371.261 568.058 370.621C568.182 369.959 568.275 369.37 568.337 368.854ZM558.076 362.716H576.118V367.335H573.886V364.7H560.215V367.769H558.076V362.716ZM561.269 366.777L563.346 367.304C562.974 368.544 562.509 369.835 561.951 371.179C561.393 372.522 560.752 373.803 560.029 375.023C559.305 376.242 558.51 377.317 557.642 378.247C557.497 378.04 557.301 377.782 557.053 377.472C556.805 377.141 556.588 376.893 556.402 376.728C557.187 375.86 557.89 374.868 558.51 373.752C559.15 372.615 559.698 371.447 560.153 370.249C560.628 369.029 561 367.872 561.269 366.777ZM563.594 368.172H575.653V370.094H563.594V368.172ZM565.02 378.898H574.072V380.789H565.02V378.898ZM564.059 373.225H575.219V388.043H573.111V375.147H566.074V388.198H564.059V373.225ZM559.626 373.039L561.517 371.148L561.61 371.241V388.229H559.626V373.039ZM564.927 360.298L566.88 359.616C567.231 360.153 567.572 360.752 567.903 361.414C568.254 362.054 568.523 362.602 568.709 363.057L566.663 363.863C566.497 363.387 566.249 362.809 565.919 362.127C565.588 361.445 565.257 360.835 564.927 360.298ZM565.082 384.85H574.072V386.741H565.082V384.85ZM579.001 364.731H592.765V366.901H579.001V364.731ZM584.023 371.024H589.975V373.194H584.023V371.024ZM584.674 359.771H586.968V365.754H584.674V359.771ZM589.169 371.024H591.37C591.37 371.024 591.37 371.096 591.37 371.241C591.37 371.365 591.37 371.509 591.37 371.675C591.37 371.84 591.359 371.985 591.339 372.109C591.297 374.692 591.246 376.883 591.184 378.681C591.122 380.458 591.049 381.925 590.967 383.083C590.884 384.219 590.77 385.098 590.626 385.718C590.502 386.338 590.336 386.782 590.13 387.051C589.882 387.402 589.613 387.64 589.324 387.764C589.055 387.908 588.704 388.012 588.27 388.074C587.898 388.115 587.402 388.136 586.782 388.136C586.182 388.136 585.552 388.125 584.891 388.105C584.87 387.774 584.808 387.402 584.705 386.989C584.601 386.575 584.457 386.224 584.271 385.935C584.911 385.976 585.5 386.007 586.038 386.028C586.596 386.048 586.988 386.059 587.216 386.059C587.443 386.059 587.629 386.028 587.774 385.966C587.918 385.924 588.053 385.811 588.177 385.625C588.363 385.377 588.518 384.777 588.642 383.827C588.766 382.876 588.869 381.419 588.952 379.456C589.034 377.472 589.107 374.826 589.169 371.52V371.024ZM595.679 365.506H607.459V367.676H595.679V365.506ZM596.392 359.678L598.779 360.05C598.427 361.992 597.993 363.883 597.477 365.723C596.96 367.562 596.361 369.277 595.679 370.869C595.017 372.439 594.263 373.824 593.416 375.023C593.271 374.878 593.075 374.713 592.827 374.527C592.599 374.341 592.351 374.155 592.083 373.969C591.835 373.783 591.618 373.628 591.432 373.504C592.258 372.408 592.982 371.127 593.602 369.66C594.242 368.192 594.79 366.611 595.245 364.917C595.72 363.201 596.102 361.455 596.392 359.678ZM602.995 366.653L605.289 366.932C604.731 370.507 603.925 373.648 602.871 376.356C601.837 379.063 600.442 381.398 598.686 383.362C596.929 385.304 594.697 386.947 591.99 388.291C591.928 388.105 591.814 387.888 591.649 387.64C591.504 387.392 591.339 387.133 591.153 386.865C590.967 386.617 590.801 386.41 590.657 386.245C593.219 385.108 595.317 383.651 596.95 381.874C598.603 380.076 599.905 377.916 600.856 375.395C601.827 372.873 602.54 369.959 602.995 366.653ZM596.609 367.49C597.125 370.342 597.838 373.008 598.748 375.488C599.678 377.947 600.876 380.096 602.344 381.936C603.811 383.775 605.588 385.191 607.676 386.183C607.51 386.327 607.314 386.513 607.087 386.741C606.88 386.989 606.684 387.226 606.498 387.454C606.332 387.702 606.188 387.939 606.064 388.167C603.873 387.009 602.023 385.449 600.515 383.486C599.027 381.502 597.807 379.187 596.857 376.542C595.906 373.876 595.141 370.982 594.563 367.862L596.609 367.49ZM582.659 365.785H584.891V373.38C584.891 375.074 584.777 376.79 584.55 378.526C584.343 380.241 583.899 381.915 583.217 383.548C582.555 385.18 581.532 386.73 580.148 388.198C579.941 387.95 579.672 387.681 579.342 387.392C579.011 387.123 578.701 386.885 578.412 386.679C579.672 385.335 580.602 383.92 581.202 382.432C581.822 380.923 582.214 379.404 582.38 377.875C582.566 376.325 582.659 374.816 582.659 373.349V365.785Z" fill="#3FA5FF"/>
</svg>
