<?xml version="1.0" encoding="UTF-8"?>
<!--Generator: Apple Native CoreSVG 341-->
<!DOCTYPE svg
PUBLIC "-//W3C//DTD SVG 1.1//EN"
       "http://www.w3.org/Graphics/SVG/1.1/DTD/svg11.dtd">
<svg version="1.1" xmlns="http://www.w3.org/2000/svg" xmlns:xlink="http://www.w3.org/1999/xlink" viewBox="0 0 23.0544 23.0445">
 <g>
  <rect height="23.0445" opacity="0" width="23.0544" x="0" y="0"/>
  <path d="M11.4521 6.94093C13.3196 6.94093 14.8333 8.46941 14.8333 10.3549L14.8333 19.4588C14.8333 21.3443 13.3194 22.8728 11.4521 22.8728L3.56279 22.8728C1.69559 22.8728 0.181631 21.3441 0.181631 19.4588L0.181631 10.3549C0.181631 8.46947 1.69553 6.94093 3.56279 6.94093L11.4521 6.94093ZM8.83141 2.45843C9.34641 0.657105 11.22-0.384188 13.016 0.132336L20.6033 2.31374C22.3993 2.83029 23.4375 4.70955 22.9225 6.51087L20.1254 16.2957C19.7205 17.7119 18.4758 18.6544 17.0893 18.7433L17.0893 10.507C17.0893 7.38378 14.565 4.85192 11.4512 4.85191L8.14757 4.85191L8.83141 2.45843Z" fill="#ffbc6e"/>
 </g>
</svg>
