<?xml version="1.0" encoding="UTF-8"?>
<!--Generator: Apple Native CoreSVG 341-->
<!DOCTYPE svg
PUBLIC "-//W3C//DTD SVG 1.1//EN"
       "http://www.w3.org/Graphics/SVG/1.1/DTD/svg11.dtd">
<svg version="1.1" xmlns="http://www.w3.org/2000/svg" xmlns:xlink="http://www.w3.org/1999/xlink" viewBox="0 0 19.1799 18.4257">
 <g>
  <rect height="18.4257" opacity="0" width="19.1799" x="0" y="0"/>
  <path d="M15.708 0C17.6255 0 19.1799 1.56314 19.1799 3.49137L19.1799 14.8383C19.1799 16.7665 17.6255 18.3297 15.708 18.3297L3.5565 18.3297C1.63904 18.3297 0.0846336 16.7665 0.0846336 14.8383L0.0846336 3.49137C0.0846336 1.56314 1.63904 0 3.5565 0L15.708 0ZM3.55055 5.24908C2.59088 5.24908 1.81291 6.03051 1.81291 6.99445L1.81291 14.8486C1.81291 15.8126 2.59088 16.594 3.55055 16.594L15.714 16.594C16.6737 16.594 17.4516 15.8126 17.4516 14.8486L17.4516 6.99445C17.4516 6.03051 16.6737 5.24908 15.714 5.24908L3.55055 5.24908Z" fill="#ffbc6e"/>
 </g>
</svg>
