<?xml version="1.0" encoding="UTF-8"?>
<!--Generator: Apple Native CoreSVG 341-->
<!DOCTYPE svg
PUBLIC "-//W3C//DTD SVG 1.1//EN"
       "http://www.w3.org/Graphics/SVG/1.1/DTD/svg11.dtd">
<svg version="1.1" xmlns="http://www.w3.org/2000/svg" xmlns:xlink="http://www.w3.org/1999/xlink" viewBox="0 0 22.5919 25.0777">
 <g>
  <rect height="25.0777" opacity="0" width="22.5919" x="0" y="0"/>
  <path d="M13.13 5.2704C13.2599 4.82614 13.8891 4.82614 14.0191 5.2704C15.1278 9.06135 18.0929 12.0257 21.8838 13.1345C22.3275 13.2646 22.3276 13.8935 21.8838 14.0236C18.0929 15.1323 15.1278 18.0966 14.0191 21.8876C13.8891 22.3319 13.2599 22.3319 13.13 21.8876C12.0212 18.0967 9.05697 15.1323 5.26618 14.0236C4.82193 13.8937 4.82193 13.2643 5.26618 13.1345C9.05694 12.0257 12.0211 9.06127 13.13 5.2704ZM4.45008 0.0466504C4.46826-0.0155501 4.55678-0.0155501 4.57496 0.0466504C5.19588 2.1693 6.8558 3.82959 8.97839 4.45037C9.04002 4.4688 9.04005 4.55585 8.97839 4.57425C6.85577 5.19506 5.19588 6.85529 4.57496 8.97797C4.55678 9.04017 4.46826 9.04017 4.45008 8.97797C3.82922 6.85524 2.16927 5.19509 0.0466418 4.57425C-0.0155473 4.55607-0.0155473 4.46855 0.0466418 4.45037C2.16927 3.82956 3.82919 2.16936 4.45008 0.0466504Z" fill="#ffbc6e"/>
 </g>
</svg>
